<svg clip-rule="evenodd" fill-rule="evenodd" stroke-linejoin="round" stroke-miterlimit="2" viewBox="0 0 55 55" xmlns="http://www.w3.org/2000/svg"><path d="m0 0h54.041v54.041h-54.041z" fill="#09233b"/><path d="m0 5.286c26.909 0 48.755 21.846 48.755 48.755s-21.846 48.756-48.755 48.756-48.755-21.847-48.755-48.756 21.846-48.755 48.755-48.755zm0 80c17.244 0 31.245-14 31.245-31.245 0-17.244-14.001-31.244-31.245-31.244s-31.245 14-31.245 31.244c0 17.245 14.001 31.245 31.245 31.245zm0-40c4.832 0 8.755 3.923 8.755 8.755s-3.923 8.756-8.755 8.756-8.755-3.924-8.755-8.756 3.923-8.755 8.755-8.755z" fill="#8cf6f1"/><path d="m0 13.286c22.493 0 40.755 18.262 40.755 40.755 0 22.494-18.262 40.756-40.755 40.756s-40.755-18.262-40.755-40.756c0-22.493 18.262-40.755 40.755-40.755zm0 64c12.829 0 23.245-10.416 23.245-23.245s-10.416-23.244-23.245-23.244-23.245 10.415-23.245 23.244 10.416 23.245 23.245 23.245zm0-32c4.832 0 8.755 3.923 8.755 8.755s-3.923 8.756-8.755 8.756-8.755-3.924-8.755-8.756 3.923-8.755 8.755-8.755z" fill="#09233b"/><path d="m0 15.286c21.39 0 38.755 17.366 38.755 38.755 0 21.39-17.365 38.756-38.755 38.756s-38.755-17.366-38.755-38.756c0-21.389 17.365-38.755 38.755-38.755zm0 60c11.725 0 21.245-9.52 21.245-21.245s-9.52-21.244-21.245-21.244-21.245 9.519-21.245 21.244 9.52 21.245 21.245 21.245zm0-30c4.832 0 8.755 3.923 8.755 8.755s-3.923 8.756-8.755 8.756-8.755-3.924-8.755-8.756 3.923-8.755 8.755-8.755z" fill="#00e3cb"/><path d="m0 23.286c16.974 0 30.755 13.781 30.755 30.755 0 16.975-13.781 30.756-30.755 30.756s-30.755-13.781-30.755-30.756c0-16.974 13.781-30.755 30.755-30.755zm0 44c7.31 0 13.245-5.935 13.245-13.245s-5.935-13.244-13.245-13.244-13.245 5.934-13.245 13.244 5.935 13.245 13.245 13.245zm0-22c4.832 0 8.755 3.923 8.755 8.755s-3.923 8.756-8.755 8.756-8.755-3.924-8.755-8.756 3.923-8.755 8.755-8.755z" fill="#09233b"/><path d="m0 25.286c15.871 0 28.755 12.885 28.755 28.755 0 15.871-12.884 28.756-28.755 28.756s-28.755-12.885-28.755-28.756c0-15.87 12.884-28.755 28.755-28.755zm0 40c6.206 0 11.245-5.039 11.245-11.245s-5.039-11.244-11.245-11.244-11.245 5.038-11.245 11.244 5.039 11.245 11.245 11.245zm0-20c4.832 0 8.755 3.923 8.755 8.755s-3.923 8.756-8.755 8.756-8.755-3.924-8.755-8.756 3.923-8.755 8.755-8.755z" fill="#0677b6"/><circle cy="54.041" fill="#09233b" r="20.755"/><circle cy="54.041" fill="#a242d8" r="18.755"/><circle cy="54.041" fill="#09233b" r="10.755"/><circle cy="54.041" fill="#f75ec1" r="8.755"/></svg>