<?xml version="1.0" encoding="UTF-8" standalone="no"?>
<!DOCTYPE svg PUBLIC "-//W3C//DTD SVG 1.1//EN" "http://www.w3.org/Graphics/SVG/1.1/DTD/svg11.dtd">
<svg width="100%" height="100%" viewBox="0 0 55 55" version="1.1" xmlns="http://www.w3.org/2000/svg" xmlns:xlink="http://www.w3.org/1999/xlink" xml:space="preserve" xmlns:serif="http://www.serif.com/" style="fill-rule:evenodd;clip-rule:evenodd;stroke-linejoin:round;stroke-miterlimit:2;">
    <g transform="matrix(1,0,0,1,-389.085,-1285.13)">
        <g transform="matrix(1,0,0,1,1.8131,-1.8131)">
            <path d="M441.314,1293.52C441.314,1289.89 438.37,1286.95 434.74,1286.95L393.846,1286.95C390.216,1286.95 387.272,1289.89 387.272,1293.52L387.272,1334.41C387.272,1338.04 390.216,1340.99 393.846,1340.99L434.74,1340.99C438.37,1340.99 441.314,1338.04 441.314,1334.41L441.314,1293.52Z" style="fill:rgb(9,35,59);"/>
        </g>
        <g>
            <clipPath id="_clip1">
                <path d="M443.127,1290.54C443.127,1289.11 442.557,1287.73 441.543,1286.72C440.529,1285.7 439.154,1285.13 437.721,1285.13L394.491,1285.13C393.058,1285.13 391.683,1285.7 390.669,1286.72C389.655,1287.73 389.085,1289.11 389.085,1290.54L389.085,1333.77C389.085,1335.2 389.655,1336.58 390.669,1337.59C391.683,1338.61 393.058,1339.17 394.491,1339.17L437.721,1339.17C439.154,1339.17 440.529,1338.61 441.543,1337.59C442.557,1336.58 443.127,1335.2 443.127,1333.77L443.127,1290.54Z"/>
            </clipPath>
            <g clip-path="url(#_clip1)">
                <g transform="matrix(1,0,0,1,1.8131,-1.8131)">
                    <rect x="387.272" y="1286.95" width="54.041" height="54.041" style="fill:url(#_Linear2);"/>
                </g>
                <path d="M389.085,1290.42C415.994,1290.42 437.841,1312.27 437.841,1339.17C437.841,1366.08 415.994,1387.93 389.085,1387.93C362.177,1387.93 340.33,1366.08 340.33,1339.17C340.33,1312.27 362.177,1290.42 389.085,1290.42ZM389.085,1298.42C366.592,1298.42 348.33,1316.68 348.33,1339.17C348.33,1361.67 366.592,1379.93 389.085,1379.93C411.579,1379.93 429.841,1361.67 429.841,1339.17C429.841,1316.68 411.579,1298.42 389.085,1298.42Z" style="fill:rgb(140,246,241);"/>
                <path d="M389.085,1300.42C410.475,1300.42 427.841,1317.79 427.841,1339.17C427.841,1360.56 410.475,1377.93 389.085,1377.93C367.696,1377.93 350.33,1360.56 350.33,1339.17C350.33,1317.79 367.696,1300.42 389.085,1300.42ZM389.085,1308.42C372.111,1308.42 358.33,1322.2 358.33,1339.17C358.33,1356.15 372.111,1369.93 389.085,1369.93C406.06,1369.93 419.841,1356.15 419.841,1339.17C419.841,1322.2 406.06,1308.42 389.085,1308.42Z" style="fill:rgb(0,227,203);"/>
                <path d="M389.085,1310.42C404.956,1310.42 417.841,1323.3 417.841,1339.17C417.841,1355.05 404.956,1367.93 389.085,1367.93C373.215,1367.93 360.33,1355.05 360.33,1339.17C360.33,1323.3 373.215,1310.42 389.085,1310.42ZM389.085,1318.42C377.63,1318.42 368.33,1327.72 368.33,1339.17C368.33,1350.63 377.63,1359.93 389.085,1359.93C400.541,1359.93 409.841,1350.63 409.841,1339.17C409.841,1327.72 400.541,1318.42 389.085,1318.42Z" style="fill:rgb(6,119,182);"/>
                <path d="M389.085,1320.42C399.437,1320.42 407.841,1328.82 407.841,1339.17C407.841,1349.53 399.437,1357.93 389.085,1357.93C378.734,1357.93 370.33,1349.53 370.33,1339.17C370.33,1328.82 378.734,1320.42 389.085,1320.42ZM389.085,1328.42C383.149,1328.42 378.33,1333.24 378.33,1339.17C378.33,1345.11 383.149,1349.93 389.085,1349.93C395.021,1349.93 399.841,1345.11 399.841,1339.17C399.841,1333.24 395.021,1328.42 389.085,1328.42Z" style="fill:rgb(162,66,216);"/>
                <g transform="matrix(0.398468,0,0,0.398468,242.803,808.682)">
                    <circle cx="367.113" cy="1331.33" r="21.973" style="fill:rgb(247,94,193);"/>
                </g>
            </g>
        </g>
    </g>
    <defs>
        <linearGradient id="_Linear2" x1="0" y1="0" x2="1" y2="0" gradientUnits="userSpaceOnUse" gradientTransform="matrix(50.0445,-52.4672,52.4672,50.0445,390.408,1339.79)"><stop offset="0" style="stop-color:rgb(9,35,59);stop-opacity:1"/><stop offset="1" style="stop-color:rgb(44,90,133);stop-opacity:1"/></linearGradient>
    </defs>
</svg>
